<svg version="1.1" xmlns="http://www.w3.org/2000/svg" xmlns:xlink="http://www.w3.org/1999/xlink" xmlns:a="http://ns.adobe.com/AdobeSVGViewerExtensions/3.0/" x="0px" y="0px" width="47.9px" height="45.8px" viewBox="0 0 47.9 45.8" style="enable-background:new 0 0 47.9 45.8;" xml:space="preserve"><path d="M47.2,20c1.5-1.5,0.7-4.1-1.4-4.4l-12.1-1.8c-0.8-0.1-1.6-0.7-1.9-1.4l-5.4-11c-0.9-1.9-3.7-1.9-4.6,0l-5.4,11c-0.4,0.8-1.1,1.3-1.9,1.4L2.2,15.6c-2.1,0.3-3,2.9-1.4,4.4l8.7,8.5c0.6,0.6,0.9,1.4,0.7,2.3l-2.1,12c-0.4,2.1,1.9,3.7,3.7,2.7l10.8-5.7c0.8-0.4,1.7-0.4,2.4,0L36,45.5c1.9,1,4.1-0.6,3.7-2.7l-2.1-12c-0.1-0.8,0.1-1.7,0.7-2.3L47.2,20z"/></svg>
