<svg version="1.1" xmlns="http://www.w3.org/2000/svg" xmlns:xlink="http://www.w3.org/1999/xlink" xmlns:a="http://ns.adobe.com/AdobeSVGViewerExtensions/3.0/" x="0px" y="0px" viewBox="0 0 15.5 27.4" style="enable-background:new 0 0 15.5 27.4;" xml:space="preserve"><path d="M13.5,0H2C0.9,0,0,0.9,0,2v23.4c0,1.1,0.9,2,2,2h11.5c1.1,0,2-0.9,2-2V2C15.5,0.9,14.6,0,13.5,0z M4.9,1.2h5.7c0.1,0,0.3,0.2,0.3,0.5s-0.1,0.5-0.3,0.5H4.9C4.8,2.2,4.7,2,4.7,1.7S4.8,1.2,4.9,1.2z M7.8,25.5c-0.7,0-1.3-0.6-1.3-1.3c0-0.7,0.6-1.3,1.3-1.3c0.7,0,1.3,0.6,1.3,1.3C9,24.9,8.5,25.5,7.8,25.5z M14,21.1H1.5V3.4H14V21.1z"/></svg>
