<svg version="1.1" xmlns="http://www.w3.org/2000/svg" xmlns:xlink="http://www.w3.org/1999/xlink" xmlns:a="http://ns.adobe.com/AdobeSVGViewerExtensions/3.0/" x="0px" y="0px" viewBox="0 0 522.5 392" style="enable-background:new 0 0 522.5 392;" xml:space="preserve"><path d="M325.8,5.3l-17.7-4.9c-2.3-0.8-4.5-0.5-6.7,0.7c-2.2,1.2-3.7,3.1-4.4,5.6L190.4,375.3c-0.8,2.5-0.5,4.8,0.7,7c1.2,2.2,3.1,3.7,5.6,4.4l17.7,4.9c2.3,0.8,4.5,0.5,6.7-0.7c2.2-1.2,3.7-3.1,4.4-5.6L332,16.7c0.8-2.5,0.5-4.8-0.7-7C330.1,7.5,328.2,6,325.8,5.3z"/><path d="M166.2,77.2c0-2.5-1-4.7-2.9-6.6L149,56.4c-1.9-1.9-4.1-2.9-6.6-2.9s-4.7,1-6.6,2.9l-133,133C1,191.3,0,193.5,0,196s1,4.7,2.9,6.6l133,133c1.9,1.9,4.1,2.9,6.6,2.9c2.5,0,4.7-1,6.6-2.9l14.3-14.3c1.9-1.9,2.9-4.1,2.9-6.6c0-2.5-1-4.7-2.9-6.6L51.1,196L163.3,83.8C165.2,81.9,166.2,79.7,166.2,77.2z"/><path d="M519.6,189.4l-133-133c-1.9-1.9-4.1-2.9-6.6-2.9c-2.5,0-4.7,1-6.6,2.9l-14.3,14.3c-1.9,1.9-2.9,4.1-2.9,6.6s0.9,4.7,2.9,6.6L471.4,196L359.2,308.2c-1.9,1.9-2.9,4.1-2.9,6.6c0,2.5,0.9,4.7,2.9,6.6l14.3,14.3c1.9,1.9,4.1,2.9,6.6,2.9c2.5,0,4.7-1,6.6-2.9l133-133c1.9-1.9,2.9-4.1,2.9-6.6C522.5,193.5,521.5,191.3,519.6,189.4z"/></svg>
