<svg version="1.1" xmlns="http://www.w3.org/2000/svg" xmlns:xlink="http://www.w3.org/1999/xlink" xmlns:a="http://ns.adobe.com/AdobeSVGViewerExtensions/3.0/" x="0px" y="0px" viewBox="0 0 288.4 288.3" xml:space="preserve"><path d="M144.1,0c-38.5,0-74.7,15-102,42.2C-14,98.4-14,189.9,42.1,246.1c27.2,27.2,63.5,42.2,102,42.2s74.7-15,102-42.2c27.2-27.2,42.2-63.5,42.2-102s-15-74.7-42.2-102C218.9,15,182.6,0,144.1,0z M59.6,228.8C15.9,185,13.1,115.6,51.4,68.6L219.8,237c-21.3,17.4-47.7,26.8-75.5,26.8C112.1,263.9,82.1,251.5,59.6,228.8z M237,219.7L68.6,51.3c21.3-17.4,47.7-26.8,75.5-26.8c32,0,62,12.5,84.6,35.1s35.1,52.7,35.1,84.6C263.9,172.1,254.4,198.5,237,219.7z"/></svg>
