<?xml version="1.0" encoding="utf-8"?>
<!-- Generator: Adobe Illustrator 16.0.0, SVG Export Plug-In . SVG Version: 6.00 Build 0)  -->
<!DOCTYPE svg PUBLIC "-//W3C//DTD SVG 1.1//EN" "http://www.w3.org/Graphics/SVG/1.1/DTD/svg11.dtd">
<svg version="1.1" id="Forma_14_1_" xmlns="http://www.w3.org/2000/svg" xmlns:xlink="http://www.w3.org/1999/xlink" x="0px"
	 y="0px" width="20px" height="20px" viewBox="0 0 20 20" enable-background="new 0 0 20 20" xml:space="preserve">
<g id="Forma_14">
	<g>
		<path fill="#FFFFFF" d="M2.851,8.854L9,2.704l3.148,3.148c0.195,0.195,0.512,0.195,0.707,0l4.147-4.148v1.794
			c0,0.275,0.225,0.5,0.5,0.5c0.277,0,0.501-0.225,0.501-0.5V0.497c0-0.276-0.224-0.5-0.501-0.5h-3c-0.276,0-0.5,0.224-0.5,0.5
			c0,0.275,0.224,0.5,0.5,0.5h1.793l-3.794,3.794L9.354,1.644c-0.196-0.195-0.512-0.195-0.708,0L2.144,8.146
			c-0.196,0.196-0.196,0.512,0,0.708C2.339,9.049,2.656,9.049,2.851,8.854z M19.503,19.003h-1.5V8.499c0-0.275-0.224-0.5-0.501-0.5
			h-3c-0.276,0-0.5,0.225-0.5,0.5v10.504h-2.001V11c0-0.275-0.225-0.5-0.501-0.5h-3C8.224,10.5,8,10.725,8,11v8.003h-2v-5.502
			c0-0.276-0.225-0.5-0.5-0.5H2.498c-0.276,0-0.5,0.224-0.5,0.5v5.502h-1.5c-0.276,0-0.5,0.224-0.5,0.5s0.225,0.5,0.5,0.5h19.006
			c0.276,0,0.5-0.224,0.5-0.5S19.779,19.003,19.503,19.003z"/>
	</g>
</g>
</svg>
