<svg version="1.1" xmlns="http://www.w3.org/2000/svg" xmlns:xlink="http://www.w3.org/1999/xlink" xmlns:a="http://ns.adobe.com/AdobeSVGViewerExtensions/3.0/" x="0px" y="0px" viewBox="0 0 490.4 490.4" xml:space="preserve"><path d="M245.2,0C110,0,0,110,0,245.2s110,245.2,245.2,245.2s245.2-110,245.2-245.2S380.4,0,245.2,0z M245.2,465.9c-121.7,0-220.7-99-220.7-220.7s99-220.7,220.7-220.7s220.7,99,220.7,220.7S366.9,465.9,245.2,465.9z"/><path d="M262.5,245.2l47.6-47.6c4.8-4.8,4.8-12.5,0-17.3c-4.8-4.8-12.5-4.8-17.3,0l-47.6,47.6l-47.6-47.6c-4.8-4.8-12.5-4.8-17.3,0c-4.8,4.8-4.8,12.5,0,17.3l47.6,47.6l-47.6,47.6c-4.8,4.8-4.8,12.5,0,17.3c2.4,2.4,5.5,3.6,8.7,3.6s6.3-1.2,8.7-3.6l47.6-47.6l47.6,47.6c2.4,2.4,5.5,3.6,8.7,3.6s6.3-1.2,8.7-3.6c4.8-4.8,4.8-12.5,0-17.3L262.5,245.2z"/></svg>
