<svg version="1.1" xmlns="http://www.w3.org/2000/svg" xmlns:xlink="http://www.w3.org/1999/xlink" x="0px"
	 y="0px" viewBox="0 0 20 16" enable-background="new 0 0 20 16" xml:space="preserve">
		<path fill-rule="evenodd" clip-rule="evenodd" fill="#FFFFFF" d="M18.935,6.438v7.924c0,0.313,0.228,0.547,0.531,0.547
			s0.531-0.234,0.531-0.547V5.931L18.935,6.438z M9.943,10.654c-0.076,0-0.152,0-0.228-0.039l-6.07-2.889v5.543
			c0,1.288,2.58,2.732,6.298,2.732c3.718,0,6.297-1.444,6.297-2.693V7.727l-6.069,2.889C10.095,10.654,10.02,10.654,9.943,10.654z
			 M19.883,4.76l-9.94-4.762L0.003,4.76l9.94,4.763L19.883,4.76z"/>
</svg>
