<svg version="1.1" xmlns="http://www.w3.org/2000/svg" xmlns:xlink="http://www.w3.org/1999/xlink" xmlns:a="http://ns.adobe.com/AdobeSVGViewerExtensions/3.0/" x="0px" y="0px" viewBox="0 0 475.1 402" style="enable-background:new 0 0 475.1 402;" xml:space="preserve"><path d="M436.2,110.2c5.1-15.4,7.7-31.4,7.7-48c0-22.1-4.9-42.8-14.6-62.2c-20.4,0-38.3,3.7-54,11.1c-15.6,7.4-33.4,18.9-53.4,34.5c-25.1-6.1-51.8-9.1-79.9-9.1c-30.8,0-60.2,3.3-88.2,10c-20.4-16-38.4-27.7-54-35.3S66.2,0,45.7,0C36,19.4,31.1,40.2,31.1,62.2c0,16.8,2.6,32.9,7.7,48.5C12.9,141,0,178.7,0,223.8c0,39.6,5.9,71.1,17.7,94.5c6.3,12.4,14.5,23.3,24.6,32.8c10.1,9.5,21.6,17.2,34.5,23.1c12.9,5.9,26,10.8,39.1,14.7c13.1,3.9,27.6,6.8,43.5,8.6c15.9,1.8,29.9,3,42.1,3.6c12.2,0.6,25.7,0.9,40.5,0.9c17.5,0,33.4-0.4,47.7-1.3c14.3-0.9,30.6-3,49-6.3c18.4-3.3,34.5-7.9,48.5-13.6c14-5.7,27.4-13.9,40.3-24.6c12.8-10.7,22.9-23.3,30.1-38c11.6-23.6,17.4-55.1,17.4-94.5C475.1,178.5,462.1,140.7,436.2,110.2z M402,317.9c-6.1,12.5-13.8,22.3-23.1,29.4c-9.3,7.1-20.9,12.8-34.8,17.1c-13.9,4.3-27.2,7.1-40,8.4c-12.8,1.3-26.9,2-42.5,2h-48c-15.6,0-29.8-0.7-42.5-2c-12.8-1.3-26.1-4.1-40-8.4c-13.9-4.3-25.5-10-34.8-17.1c-9.3-7.1-17-16.9-23.1-29.4C67,305.4,64,290.8,64,274.1c0-22.8,6.6-42.3,19.7-58.2c13.1-16,30.9-24,53.4-24c8.2,0,26.7,2,55.7,6c13.5,2.1,28.5,3.1,44.8,3.1c16.4,0,31.3-1,44.8-3.1c29.3-4,47.9-6,55.7-6c22.5,0,40.3,8,53.4,24c13.1,16,19.7,35.4,19.7,58.2C411.1,290.8,408.1,305.5,402,317.9z"/><path d="M166.9,229c-5.8-6.5-12.7-9.7-20.7-9.7c-8,0-14.9,3.2-20.7,9.7c-5.8,6.5-9.9,13.7-12.3,21.7c-2.4,8-3.6,15.8-3.6,23.4c0,7.6,1.2,15.4,3.6,23.4c2.4,8,6.5,15.2,12.3,21.7c5.8,6.5,12.7,9.7,20.7,9.7c8,0,14.9-3.2,20.7-9.7c5.8-6.5,9.9-13.7,12.3-21.7c2.4-8,3.6-15.8,3.6-23.4c0-7.6-1.2-15.4-3.6-23.4C176.8,242.7,172.7,235.5,166.9,229z"/><path d="M349.6,229c-5.8-6.5-12.7-9.7-20.7-9.7c-8,0-14.9,3.2-20.7,9.7c-5.8,6.5-9.9,13.7-12.3,21.7c-2.4,8-3.6,15.8-3.6,23.4c0,7.6,1.2,15.4,3.6,23.4c2.4,8,6.5,15.2,12.3,21.7c5.8,6.5,12.7,9.7,20.7,9.7c8,0,14.9-3.2,20.7-9.7c5.8-6.5,9.9-13.7,12.3-21.7c2.4-8,3.6-15.8,3.6-23.4c0-7.6-1.2-15.4-3.6-23.4C359.5,242.7,355.4,235.5,349.6,229z"/></svg>
