<svg version="1.1" xmlns="http://www.w3.org/2000/svg" xmlns:xlink="http://www.w3.org/1999/xlink" xmlns:a="http://ns.adobe.com/AdobeSVGViewerExtensions/3.0/" x="0px" y="0px" viewBox="0 0 150.2 73" style="enable-background:new 0 0 150.2 73;" xml:space="preserve"><path d="M115.9,0C94.6,0,80.5,17.4,68,32.8C57.4,45.9,47.4,58.3,35.1,58.3c-12.7,0-20.5-13.1-20.5-22.4c0-8.7,8.6-21.3,22-21.3c13,0,19.8,10.4,20.1,11c2.1,3.4,6.6,4.5,10,2.4c3.4-2.1,4.5-6.6,2.4-10C68.7,17.2,58,0,36.6,0C15,0,0,18.9,0,35.9c0,17.5,14.4,37,35.1,37c19.2,0,31.9-15.7,44.3-31c11.4-14.1,22.2-27.4,36.5-27.4c8.5,0,14.1,2.9,17.1,8.8c2.6,5.2,2.6,11,2.6,13c0,1.2-0.6,7-3.5,12.2c-3.2,6-7.8,8.7-14.5,8.7c-13.4,0-20.6-8.7-23.3-12c-0.7-0.9-1.2-1.5-1.9-2c-3.1-2.6-7.7-2.3-10.3,0.8c-2.5,3-2.3,7.4,0.5,10c0.1,0.2,0.3,0.3,0.5,0.6c3.5,4.3,14.3,17.2,34.6,17.2c24.6,0,32.5-24,32.5-35.7c0-7.5-1.4-14-4.2-19.5C142.2,9.2,133.8,0,115.9,0z"/></svg>
