<svg x="0px" y="0px" viewBox="0 0 18 18" style="enable-background:new 0 0 18 18;" xml:space="preserve"><path d="M13,18H5c-2.7,0-5-2.2-5-5V5c0-2.7,2.2-5,5-5H13c2.7,0,5,2.2,5,5V13C18,15.8,15.8,18,13,18z M16.4,13V5c0-1.9-1.5-3.4-3.4-3.4H5C3.1,1.6,1.6,3.1,1.6,5V13c0,1.9,1.5,3.4,3.4,3.4H13C14.9,16.4,16.4,14.9,16.4,13L16.4,13z M13.8,5.3c-0.3,0-0.6-0.1-0.8-0.3c-0.2-0.2-0.3-0.5-0.3-0.8c0-0.3,0.1-0.6,0.3-0.8C13.2,3.1,13.5,3,13.8,3c0.3,0,0.6,0.1,0.8,0.3C14.9,3.6,15,3.9,15,4.2c0,0.3-0.1,0.6-0.3,0.8C14.4,5.2,14.1,5.3,13.8,5.3z M9,13.6c-2.6,0-4.6-2.1-4.6-4.6c0-2.6,2.1-4.6,4.6-4.6c2.6,0,4.6,2.1,4.6,4.6C13.6,11.6,11.6,13.6,9,13.6z M9,6C7.3,6,6,7.3,6,9s1.4,3,3,3s3-1.4,3-3S10.7,6,9,6z"></path></svg>
