<svg version="1.1" xmlns="http://www.w3.org/2000/svg" xmlns:xlink="http://www.w3.org/1999/xlink" x="0px"
	 y="0px" viewBox="0 0 18 15" enable-background="new 0 0 18 15" xml:space="preserve">
		<path d="M2.142,12.083c2.742-0.015,4.785,1.439,6.43,2.772V2.5c-1.82-1.482-3.866-2.502-6.43-2.499V12.083z
			 M1.713,12.916c-0.225,0-0.429-0.198-0.429-0.417V1.843l-1.286-0.176v12.082l7.501,1.25c-1.425-1.045-3.224-2.094-5.358-2.083
			H1.713z M15.858,0.001c-2.563-0.003-4.61,1.017-6.43,2.499v12.355c1.645-1.333,3.688-2.787,6.43-2.772V0.001z M16.716,1.843
			v10.656c0,0.219-0.204,0.417-0.429,0.417h-0.429c-2.134-0.011-3.933,1.038-5.358,2.083l7.502-1.25V1.667L16.716,1.843z"/>
</svg>
