<svg version="1.1" xmlns="http://www.w3.org/2000/svg" xmlns:xlink="http://www.w3.org/1999/xlink" xmlns:a="http://ns.adobe.com/AdobeSVGViewerExtensions/3.0/" x="0px" y="0px" viewBox="0 0 483.9 362.9" style="enable-background:new 0 0 483.9 362.9;" xml:space="preserve"><path d="M483.9,51.8h-26.7c-7,0-25.1,7.6-25.1,14v233.5c0,6.4,18.2,11.7,25.1,11.7h26.7v51.8H311.1V311h34.6V69.1h-6l-83.2,293.7H192L109.9,69.1h-6.2V311h34.6v51.8H0V311h19.2c7.5,0,15.4-5.3,15.4-11.7V65.8c0-6.4-7.9-14-15.4-14H0V0h179.2l58.5,207.3h1.6L298.3,0h185.6V51.8z"/></svg>
