<svg version="1.1" xmlns="http://www.w3.org/2000/svg" xmlns:xlink="http://www.w3.org/1999/xlink" xmlns:a="http://ns.adobe.com/AdobeSVGViewerExtensions/3.0/" x="0px" y="0px" viewBox="0 0 548.2 475.1" style="enable-background:new 0 0 548.2 475.1;" xml:space="preserve"><path d="M534.8,13.4C525.8,4.5,515.1,0,502.5,0H45.7C33.1,0,22.4,4.5,13.4,13.4C4.5,22.4,0,33.1,0,45.7v310.6c0,12.6,4.5,23.3,13.4,32.3c9,8.9,19.7,13.4,32.3,13.4H201c0,7.2-1.5,14.7-4.6,22.3c-3,7.6-6.1,14.3-9.1,20c-3,5.7-4.6,9.9-4.6,12.6c0,4.9,1.8,9.2,5.4,12.8c3.6,3.6,7.9,5.4,12.8,5.4h146.2c4.9,0,9.2-1.8,12.8-5.4c3.6-3.6,5.4-7.9,5.4-12.8c0-2.5-1.5-6.6-4.6-12.4c-3-5.8-6.1-12.6-9.1-20.3c-3-7.7-4.6-15.1-4.6-22.1h155.3c12.6,0,23.3-4.5,32.3-13.4c8.9-8.9,13.4-19.7,13.4-32.3V45.7C548.2,33.1,543.7,22.4,534.8,13.4z M511.6,283.2c0,2.5-0.9,4.6-2.7,6.4c-1.8,1.8-4,2.7-6.4,2.7H45.7c-2.5,0-4.6-0.9-6.4-2.7c-1.8-1.8-2.7-3.9-2.7-6.4V45.7c0-2.5,0.9-4.6,2.7-6.4c1.8-1.8,4-2.7,6.4-2.7h456.8c2.5,0,4.6,0.9,6.4,2.7c1.8,1.8,2.7,3.9,2.7,6.4V283.2L511.6,283.2z"/></svg>
