<svg x="0px" y="0px" viewBox="0 0 15 12" style="enable-background:new 0 0 15 12;" xml:space="preserve"><path  d="M15,1.4c-0.6,0.2-1.1,0.4-1.8,0.5c0.6-0.4,1.1-1,1.4-1.7c-0.6,0.3-1.3,0.6-2,0.7c-0.6-0.6-1.4-1-2.2-1C8.7,0,7.3,1.4,7.3,3c0,0.2,0,0.5,0.1,0.7C4.8,3.6,2.6,2.4,1,0.6C0.8,1,0.6,1.5,0.6,2.1c0,1.1,0.5,2,1.4,2.5c-0.5,0-1-0.2-1.4-0.4c0,0,0,0,0,0c0,1.5,1.1,2.7,2.5,3C2.8,7.3,2.5,7.3,2.3,7.3c-0.2,0-0.4,0-0.6-0.1c0.4,1.2,1.5,2.1,2.9,2.1c-1.1,0.8-2.4,1.3-3.8,1.3c-0.2,0-0.5,0-0.7,0C1.4,11.5,3,12,4.7,12c5.7,0,8.8-4.6,8.8-8.6c0-0.1,0-0.3,0-0.4C14.1,2.6,14.6,2,15,1.4z"></path></svg>
