<svg version="1.1"
	 xmlns="http://www.w3.org/2000/svg" xmlns:xlink="http://www.w3.org/1999/xlink" xmlns:a="http://ns.adobe.com/AdobeSVGViewerExtensions/3.0/"
	 x="0px" y="0px" viewBox="0 0 302.4 422.8" style="enable-background:new 0 0 302.4 422.8;"
	 xml:space="preserve">
<path d="M291.3,16.3C282.4,5.9,269.5,0,255.9,0H46.5C20.9,0,0,20.9,0,46.5v355c0,8.8,5.5,16.8,13.7,19.9
	c2.5,0.9,5,1.4,7.5,1.4c6,0,11.8-2.5,15.9-7.2l112.3-126.6h75.4c23,0,42.3-16.5,45.9-39.2l31-196C304,40.3,300.1,26.7,291.3,16.3z
	 M257.7,54.7l-8,54.9c-0.8,5.2-5.2,9.1-10.5,9.1h-99.5c-11.9,0-22,9.8-21.8,21.7c0.2,11.6,9.7,20.9,21.3,20.9h90
	c6.5,0,11.5,5.8,10.5,12.3l-10.1,63.9c-0.8,5.2-5.3,9-10.5,9l-79.2,0c-6.1,0-11.9,2.6-15.9,7.2l-81.4,91.8v-299c0-2.2,1.8-4,4-4
	h200.7C253.7,42.6,258.7,48.3,257.7,54.7z"/>
</svg>
